<svg enable-background="new 0 0 24 24" height="512" viewBox="0 0 24 24" width="512" xmlns="http://www.w3.org/2000/svg"><g id="color_1_"><g><path d="m23.192 10.053-1.9-1.9v-2.685c0-1.521-1.238-2.76-2.76-2.76h-2.685l-1.9-1.9c-1.041-1.041-2.854-1.041-3.895 0l-1.9 1.9h-2.684c-1.521 0-2.76 1.238-2.76 2.76v2.685l-1.9 1.9c-.521.52-.808 1.213-.808 1.947s.287 1.427.808 1.947l1.9 1.9v2.685c0 1.521 1.238 2.76 2.76 2.76h2.685l1.9 1.9c.52.521 1.213.808 1.947.808s1.427-.287 1.947-.808l1.9-1.9h2.685c1.521 0 2.76-1.238 2.76-2.76v-2.685l1.9-1.9c.521-.52.808-1.213.808-1.947s-.287-1.427-.808-1.947z" fill="#00bcd4"/></g><g><path d="m14.272 16.172c-1.582-.618-3.272-2.038-3.272-4.172s1.69-3.554 3.272-4.172c.286-.111.476-.387.478-.694s-.185-.585-.47-.699c-.715-.289-1.481-.435-2.28-.435-3.477 0-6 2.523-6 6s2.523 6 6 6c.799 0 1.565-.146 2.28-.435.285-.114.472-.392.47-.699s-.191-.583-.478-.694z" fill="#fafafa"/></g></g><g id="regular_1.5"><g><path d="m12 18c-3.477 0-6-2.523-6-6s2.523-6 6-6c.799 0 1.565.146 2.28.434.285.115.472.393.47.7-.002.308-.19.583-.478.695-1.582.617-3.272 2.038-3.272 4.171s1.69 3.554 3.272 4.171c.287.112.476.387.478.695.002.307-.185.584-.47.7-.715.288-1.481.434-2.28.434zm-.182-10.497c-2.513.086-4.318 1.951-4.318 4.497s1.805 4.411 4.318 4.497c-1.464-1.138-2.318-2.743-2.318-4.497s.854-3.359 2.318-4.497z"/></g><g><path d="m12 23.998c-.705 0-1.41-.269-1.947-.805l-1.9-1.9h-2.685c-1.521 0-2.76-1.238-2.76-2.76v-2.684l-1.9-1.9c-.521-.522-.808-1.214-.808-1.949s.287-1.427.808-1.947l1.9-1.9v-2.685c0-1.522 1.238-2.76 2.76-2.76h2.685l1.9-1.9c1.074-1.073 2.82-1.073 3.895 0l1.9 1.9h2.685c1.521 0 2.76 1.238 2.76 2.76v2.684l1.9 1.9c.52.521.807 1.213.807 1.948s-.287 1.427-.808 1.947l-1.9 1.9v2.684c0 1.522-1.238 2.76-2.76 2.76h-2.685l-1.9 1.9c-.537.538-1.242.806-1.947.807zm-6.532-19.79c-.694 0-1.26.565-1.26 1.26v2.995c0 .199-.079.39-.22.53l-2.12 2.12c-.237.238-.368.553-.368.887s.131.649.368.887l2.12 2.12c.141.141.22.332.22.53v2.995c0 .695.565 1.26 1.26 1.26h2.995c.199 0 .39.079.53.22l2.12 2.12c.488.488 1.285.488 1.773 0l2.12-2.12c.141-.141.331-.22.53-.22h2.995c.694 0 1.26-.565 1.26-1.26v-2.995c0-.199.079-.39.22-.53l2.12-2.12c.238-.238.369-.553.369-.887s-.131-.649-.368-.887l-2.12-2.12c-.141-.141-.22-.332-.22-.53v-2.995c0-.695-.565-1.26-1.26-1.26h-2.995c-.199 0-.39-.079-.53-.22l-2.12-2.12c-.488-.488-1.285-.488-1.773 0l-2.12 2.12c-.141.141-.331.22-.53.22z"/></g></g></svg>